<svg width="20" height="22" viewBox="0 0 20 22" fill="none" xmlns="http://www.w3.org/2000/svg">
<path d="M18.0917 10.3492L15.5917 7.59917C15.4347 7.42656 15.2219 7.32959 15 7.32959C14.7781 7.32959 14.5653 7.42656 14.4083 7.59917C14.2514 7.77179 14.1633 8.0059 14.1633 8.25001C14.1633 8.49412 14.2514 8.72823 14.4083 8.90084L15.4917 10.0833H2.5C2.27899 10.0833 2.06703 10.1799 1.91075 10.3518C1.75447 10.5237 1.66667 10.7569 1.66667 11C1.66667 11.2431 1.75447 11.4763 1.91075 11.6482C2.06703 11.8201 2.27899 11.9167 2.5 11.9167H15.4917L14.4083 13.0992C14.3302 13.1844 14.2682 13.2858 14.2259 13.3975C14.1836 13.5092 14.1618 13.629 14.1618 13.75C14.1618 13.871 14.1836 13.9908 14.2259 14.1025C14.2682 14.2142 14.3302 14.3156 14.4083 14.4008C14.4858 14.4868 14.578 14.555 14.6795 14.6015C14.7811 14.648 14.89 14.672 15 14.672C15.11 14.672 15.2189 14.648 15.3205 14.6015C15.422 14.555 15.5142 14.4868 15.5917 14.4008L18.0917 11.6508C18.1698 11.5656 18.2318 11.4642 18.2741 11.3525C18.3164 11.2408 18.3382 11.121 18.3382 11C18.3382 10.879 18.3164 10.7592 18.2741 10.6475C18.2318 10.5358 18.1698 10.4344 18.0917 10.3492Z" fill="#717171"/>
</svg>
